# xmcd CD database file
#
# Track frame offsets:
#	183
#	10365
#	21113
#	34765
#	46093
#	55908
#	65730
#	76758
#	87048
#	96803
#	107973
#	119660
#	132075
#	143233
#	156193
#	167825
#	178518
#	187493
#	200110
#	210253
#	221113
#	232148
#	242775
#	254363
#	264850
#	277105
#	291025
#	299108
#	308873
#	318755
#	329735
#
# Disc length: 4523 seconds
#
# Revision: 2
# Processed by: cddbd v1.5.1PL0 Copyright (c) Steve Scherf et al.
# Submitted via: CDex 1.51
#
DISCID=e111a91f
DTITLE=Marvin Rainwater - Classic Recordings [CD1]
DYEAR=1900
DGENRE=
TTITLE0=I Gotta Go Get My Baby 1955
TTITLE1=Daddy's Glad You Came Home 1955
TTITLE2=Albino (Pink Eyed) Stallion 1955
TTITLE3=Sticks And Stones 1955
TTITLE4=Tea Bag Romeo 1955
TTITLE5=Tennessee Houn' Dog Yodel 1955
TTITLE6=Dem Low Down Blues 1955
TTITLE7=Where Do We Go From Here 1955
TTITLE8=Hot And Cold 1956
TTITLE9=Mr. Blues 1956
TTITLE10=Get Off The Stool 1956
TTITLE11=What Am I Supposed To Do 1956
TTITLE12=(Sometimes) I Feel Like Leaving Town 1956
TTITLE13=Why Did You Have To Go And Leave Me 1956
TTITLE14=Gonna Find Me A Bluebird 1957
TTITLE15='cause I'm A Dreamer 1957
TTITLE16=So You Think You've Got Troubles 1957
TTITLE17=Look For Me (I'll Be Waiting For You) 1957
TTITLE18=Wayward Angel 1992
TTITLE19=My Brand Of Blues 1957
TTITLE20=My Love Is Real 1957
TTITLE21=Lucky Star 1957
TTITLE22=The Majesty Of Love (& Connie Francis) 1957
TTITLE23=You, My Darling You (& Connie Francis) 1957
TTITLE24=Whole Lotta Woman (Undubbed Version) 1992
TTITLE25=Whold Lotta Woman 1958
TTITLE26=That's The Way I Feel 1984
TTITLE27=Baby, Don't Go 1958
TTITLE28=Two Fools In Love (& Patty Rainwater) 1958
TTITLE29=Because I'm A Dreamer (& Patty Rainwater) 1958
TTITLE30=Down In The Cellar 1984
EXTD=
EXTT0=
EXTT1=
EXTT2=
EXTT3=
EXTT4=
EXTT5=
EXTT6=
EXTT7=
EXTT8=
EXTT9=
EXTT10=
EXTT11=
EXTT12=
EXTT13=
EXTT14=
EXTT15=
EXTT16=
EXTT17=
EXTT18=
EXTT19=
EXTT20=
EXTT21=
EXTT22=
EXTT23=
EXTT24=
EXTT25=
EXTT26=
EXTT27=
EXTT28=
EXTT29=
EXTT30=
PLAYORDER=
